<?xml version="1.0" encoding="UTF-8"?>
<svg id="_レイヤー_1" data-name="レイヤー 1" xmlns="http://www.w3.org/2000/svg" viewBox="0 0 100 100">
  <defs>
    <style>
      .cls-1, .cls-2, .cls-3, .cls-4 {
        stroke: #231815;
        stroke-width: 3px;
      }

      .cls-1, .cls-2, .cls-3, .cls-4, .cls-5 {
        fill: none;
        stroke-linecap: round;
        stroke-linejoin: round;
      }

      .cls-2 {
        stroke-dasharray: 7.25 7.25;
      }

      .cls-3 {
        stroke-dasharray: 6.82 6.82;
      }

      .cls-4 {
        stroke-dasharray: 8.42 8.42;
      }

      .cls-5 {
        stroke: #070001;
        stroke-width: 3.5px;
      }
    </style>
  </defs>
  <g>
    <line class="cls-1" x1="26.25" y1="63.75" x2="22.62" y2="63.75"/>
    <polyline class="cls-1" points="12.38 63.75 8.75 63.75 8.75 60.12"/>
    <line class="cls-3" x1="8.75" y1="53.3" x2="8.75" y2="15.79"/>
    <polyline class="cls-1" points="8.75 12.38 8.75 8.75 12.38 8.75"/>
    <line class="cls-2" x1="19.62" y1="8.75" x2="74" y2="8.75"/>
    <polyline class="cls-1" points="77.62 8.75 81.25 8.75 81.25 12.38"/>
    <line class="cls-4" x1="81.25" y1="20.79" x2="81.25" y2="33.42"/>
    <line class="cls-1" x1="81.25" y1="37.62" x2="81.25" y2="41.25"/>
  </g>
  <g>
    <path class="cls-5" d="M63.89,49.51c-.03-2.07,1.37-4.08,3.22-4.8s4.14-.14,5.66,1.16c1.52,1.3,2.27,3.34,3.11,5.17"/>
    <path class="cls-5" d="M54.59,50.88c.59-1.78,2.03-3.37,3.81-3.84,1.77-.47,3.87.18,5.03,1.59s1.39,3.56,2.32,5.15"/>
    <line class="cls-5" x1="46.71" y1="33.47" x2="57.47" y2="57.25"/>
    <path class="cls-5" d="M51.62,72.06l.73-1.84-.62-1.62-14.05-31.04c-.73-1.85-.52-3.84.47-5.32.99-1.48,2.75-2.45,4.43-2.2,1.68.25,3.28,1.73,4.13,3.43"/>
    <path class="cls-5" d="M31.86,68.13c11.25,4.3,19.51,17.44,30.69,20.49,11.18,3.05,25.29-3.99,27.7-16.84,2.41-12.84-6.89-31.49-15.41-23.02"/>
    <path class="cls-5" d="M50.16,65.11c-2.32-.69-4.57-1.48-6.93-2.09s-4.81-1.04-6.91-.18-3.83,3.02-4.46,5.29"/>
  </g>
</svg>